PathFileType	4	(X/Y/Z)	C:/Users/beibeiliu/ov580/test_trc/User2\sequence.8_training_dense_left.trc
DataRate	CameraRate	NumFrames	NumMarkers	Units	OrigDataRate	OrigDataStartFrame	OrigNumFrames
120	120	7	19	mm	120	59	117
Frame#	Time	ThumbCMC			ThumbMCP			ThumbIP			ThumbTip			IndexMCP			IndexPIP			IndexTip			MiddleMCP			MiddlePIP			MiddleTip			RingMCP			RingPIP			RingTip			PinkyMCP			PinkyPIP			PinkyTip			BackHand1			BackHand2			BackHand3	
		X0	Y0	Z0	X1	Y1	Z1	X2	Y2	Z2	X3	Y3	Z3	X4	Y4	Z4	X5	Y5	Z5	X6	Y6	Z6	X7	Y7	Z7	X8	Y8	Z8	X9	Y9	Z9	X10	Y10	Z10	X11	Y11	Z11	X12	Y12	Z12	X13	Y13	Z13	X14	Y14	Z14	X15	Y15	Z15	X16	Y16	Z16	X17	Y17	Z17	X18	Y18	Z18	
58	0.483333	-173.561	27.9644	-2.03147	-146.284	14.8277	-19.4202	-123.946	1.5903	-41.517	-119.404	-15.9033	-65.9912	-179.088	29.8103	-86.4324	-159.248	11.3221	-104.207	-142.28	-21.0637	-98.3171	-212.977	28.5831	-93.6014	-201.754	29.664	-130.173	-189.718	23.678	-159.754	-232.455	11.1897	-86.1903	-232.223	13.2337	-118.508	-224.183	12.5664	-144.151	-243.298	-15.1949	-72.2075	-248.241	-14.6087	-98.7171	-254.803	-14.7409	-125.751	-236.124	8.6541	-38.0475	-245.927	10.1752	-3.57225	-218.419	34.1933	-20.0727	
59	0.491667	-178.348	35.1669	-4.75716	-146	28.0048	-18.4874	-118.378	18.7241	-36.6557	-108.518	-1.51121	-55.9699	-171.848	20.9489	-91.5265	-143.514	7.35725	-100.403	-126.292	-13.3604	-89.7045	-206.634	6.98439	-100.792	-194.794	6.39497	-129.625	-178.604	-5.06481	-157.869	-219.667	-14.3383	-91.056	-214.613	-16.3166	-120.949	-204.424	-22.8533	-149.695	-221.005	-39.1556	-67.4598	-225.733	-47.4024	-99.8274	-224.099	-51.6435	-121.028	-230.829	-13.6175	-35.7877	-242.62	-6.83662	-8.31815	-219.633	26.6319	-26.2674	
60	0.5	-189.435	40.5347	-10.9622	-155.922	44.1594	-21.852	-121.094	44.0455	-40.1011	-106.412	26.3857	-51.5555	-173.339	12.655	-88.8413	-140.971	8.82593	-99.3404	-110.228	2.90939	-79.7702	-192.984	-8.50733	-98.2881	-178.53	-14.492	-126.051	-155.194	-17.0949	-155.055	-196.496	-35.1653	-84.7208	-187.867	-43.4141	-113.167	-173.26	-44.2987	-137.582	-190.12	-52.1958	-60.0374	-187.142	-67.2358	-85.2024	-184.174	-76.0905	-107.801	-211.44	-27.327	-37.1198	-229.387	-21.5243	-5.8027	-219.594	6.75114	-29.2697	
61	0.508333	-203.737	39.9075	-20.1682	-174.377	58.2658	-30.122	-143.452	68.241	-44.6817	-116.405	57.1446	-56.6743	-169.192	6.27341	-89.3	-137.002	16.7281	-98.1925	-113.068	32.5451	-80.0173	-175.538	-20.7631	-95.9544	-155.72	-23.8167	-123.596	-132.989	-21.1792	-146.968	-168.876	-44.4066	-74.0115	-157.297	-50.0429	-102.393	-137.526	-53.5503	-126.418	-158.457	-54.9981	-48.7421	-146.961	-66.6624	-71.8136	-136.919	-74.0964	-92.0283	-190.956	-35.6197	-31.0099	-211.603	-32.5088	-4.87103	-220.004	-2.84767	-31.896	
62	0.516667	-217.802	35.0786	-24.3438	-194.519	61.4051	-40.3801	-169.827	76.8201	-52.4792	-139.898	73.8873	-63.1363	-167.875	10.9168	-91.9058	-144.062	29.2646	-99.7936	-124.019	52.4886	-79.4451	-166.406	-20.2176	-90.4791	-146.129	-17.7647	-121.044	-121.444	-13.8937	-140.546	-152.076	-37.4034	-69.6547	-139.434	-41.7577	-93.98	-116.607	-40.98	-118.846	-140.457	-38.2616	-41.0232	-122.501	-48.9043	-60.3678	-108.354	-58.784	-79.5464	-184.074	-30.838	-23.5532	-202.544	-30.9057	-0.780961	-214.44	-11.299	-31.1524	
63	0.525	-225.448	36.7175	-23.9913	-212.526	66.6661	-41.1419	-189.683	85.8505	-57.7412	-161.205	88.582	-67.0599	-175.859	21.4767	-91.0652	-154.274	46.3999	-100.023	-142.12	73.5356	-84.1039	-165.013	-9.73429	-90.5033	-149.21	-4.60903	-118.018	-127.928	8.6582	-142.457	-150.826	-19.7717	-66.6603	-134.32	-23.0568	-94.4842	-114.636	-19.1976	-116.753	-138.15	-15.9471	-40.9308	-115.967	-23.7358	-58.9192	-102.482	-29.0304	-81.5315	-179.431	-18.1813	-23.2262	-194.279	-26.2979	5.69731	-213.974	-8.30581	-30.9837	
64	0.533333	-228.121	43.6747	-20.3644	-223.555	76.6467	-35.4042	-202.397	100.425	-60.4769	-176.664	103.283	-67.1809	-182.796	35.2473	-91.4463	-166.078	62.867	-101.095	-159.092	88.6527	-88.2732	-173.28	5.77434	-90.8139	-154.703	13.5005	-121.108	-136.181	28.8595	-144.276	-150.882	-4.56065	-70.1893	-137.967	-4.22109	-95.8084	-122.703	5.28998	-122.601	-138.411	3.29897	-46.2128	-118.399	-1.84186	-65.8582	-102.479	-6.00924	-82.9663	-176.469	-5.12663	-22.0336	-190.668	-10.7674	6.02761	-213.922	4.16095	-25.5526	
